<?xml version="1.0" encoding="utf-8"?>
<!-- Generator: Adobe Illustrator 23.0.1, SVG Export Plug-In . SVG Version: 6.00 Build 0)  -->
<svg version="1.1" id="Layer_1" xmlns="http://www.w3.org/2000/svg" xmlns:xlink="http://www.w3.org/1999/xlink" x="0px" y="0px"
	 viewBox="0 0 90.6 95" style="enable-background:new 0 0 90.6 95;" xml:space="preserve">
<style type="text/css">
	.st0{fill:#E7BC0E;}
</style>
<title>heartshine</title>
<path class="st0" d="M45.3,78.3l-0.2,0.2L20.7,54.1c-7.4-7.4-7.4-19.3,0-26.7c6.6-6.6,17.1-7.4,24.6-1.8c8.4-6.2,20.2-4.4,26.4,4
	c5.6,7.5,4.8,18-1.8,24.6L45.5,78.5L45.3,78.3z M45.5,69.2l19.8-19.7c4.8-4.8,4.8-12.6,0-17.5s-12.6-4.8-17.5,0l-2.5,2.5L42.8,32
	c-4.8-4.8-12.7-4.8-17.5,0s-4.8,12.7,0,17.5l19.8,19.7l0.2-0.2L45.5,69.2z"/>
<path class="st0" d="M25,31.7c5-5,13.1-5,18.1,0c0,0,0,0,0,0l2.2,2.2l2.2-2.2c5-5,13.1-5,18.2,0s5,13.1,0,18.2L45.5,69.9l-0.2-0.2
	l-0.2,0.2L25,49.8C20,44.8,20,36.7,25,31.7z M45.1,77.8l0.2-0.2l0.2,0.2l24-24c7.2-7.1,7.3-18.8,0.2-26c-6.5-6.6-17-7.3-24.4-1.6
	c-8.1-6.2-19.6-4.7-25.8,3.4c-5.6,7.3-4.9,17.6,1.5,24.2L45.1,77.8z"/>
<path class="st0" d="M47.3,10.6c-0.7,0-1.3-0.1-2-0.1s-1.3,0-2,0.1h-0.5V2.5c0-1.4,1.1-2.5,2.5-2.5s2.5,1.1,2.5,2.5v8.1L47.3,10.6z"
	/>
<path class="st0" d="M47.3,2.5c0-1.1-0.9-2-2-2s-2,0.9-2,2v7.6c0.7,0,1.3-0.1,2-0.1s1.3,0,2,0.1V2.5z"/>
<path class="st0" d="M45.3,95c-1.4,0-2.5-1.1-2.5-2.5v-8.1h0.5c0.7,0,1.3,0,2,0s1.3,0,2,0h0.5v8.1C47.9,93.9,46.7,95,45.3,95
	C45.3,95,45.3,95,45.3,95z"/>
<path class="st0" d="M47.3,92.5v-7.6c-0.7,0-1.3,0-2,0s-1.3,0-2,0v7.6c0,1.1,0.9,2,2,2S47.3,93.6,47.3,92.5z"/>
<path class="st0" d="M16.8,12.6c-0.7-1.2-0.3-2.7,0.9-3.4c1-0.6,2.3-0.4,3.1,0.5l4.8,6.6l-0.4,0.3C24,17.2,23,18,22,18.8l-0.4,0.3
	L16.8,12.6z"/>
<path class="st0" d="M17.7,9.5c-0.9,0.6-1.1,1.9-0.5,2.8l4.5,6.1c1-0.8,2.1-1.6,3.2-2.4l-4.5-6.1C19.8,9,18.6,8.8,17.7,9.5
	C17.7,9.5,17.7,9.5,17.7,9.5L17.7,9.5z"/>
<path class="st0" d="M71.8,86.4c-0.8,0-1.5-0.4-2-1L65,78.8l0.4-0.3c1.1-0.7,2.2-1.5,3.2-2.3l0.4-0.3l4.8,6.6
	c0.8,1.1,0.6,2.7-0.6,3.5C72.8,86.3,72.3,86.4,71.8,86.4z"/>
<path class="st0" d="M68.9,76.6c-1,0.8-2.1,1.6-3.2,2.3l4.5,6.2c0.6,0.9,1.9,1.1,2.8,0.4c0,0,0,0,0,0c0.9-0.6,1.1-1.9,0.4-2.8
	c0,0,0,0,0,0L68.9,76.6z"/>
<path class="st0" d="M1.7,36c-0.6-0.2-1.1-0.7-1.4-1.2c-0.3-0.6-0.4-1.3-0.2-1.9c0.3-1,1.3-1.7,2.3-1.7c0.3,0,0.5,0,0.8,0.1l7.7,2.5
	l-0.2,0.5c-0.5,1.2-0.9,2.5-1.2,3.8l-0.1,0.5L1.7,36z"/>
<path class="st0" d="M3.1,31.7c-1.1-0.3-2.2,0.2-2.5,1.3c-0.3,1.1,0.2,2.2,1.3,2.5l7.2,2.3c0.4-1.3,0.8-2.6,1.2-3.8L3.1,31.7z"/>
<path class="st0" d="M88.1,63.9c-0.3,0-0.5,0-0.8-0.1l-7.7-2.5l0.2-0.5c0.5-1.2,0.9-2.5,1.2-3.8l0.1-0.5l7.7,2.5
	c1.3,0.4,2,1.8,1.6,3.2C90.1,63.2,89.2,63.9,88.1,63.9z"/>
<path class="st0" d="M87.5,63.3c0.2,0.1,0.4,0.1,0.6,0.1c1.1,0,2-0.9,2-2c0-0.9-0.6-1.7-1.4-1.9l-7.2-2.3c-0.3,1.3-0.8,2.6-1.2,3.8
	L87.5,63.3z"/>
<path class="st0" d="M2.5,63.9c-1.4,0-2.5-1.1-2.5-2.5c0-1.1,0.7-2.1,1.7-2.4l7.7-2.5L9.6,57c0.3,1.3,0.8,2.5,1.2,3.8l0.2,0.5
	l-7.7,2.5C3,63.9,2.8,63.9,2.5,63.9z"/>
<path class="st0" d="M1.9,59.5c-1.1,0.3-1.6,1.4-1.3,2.5c0.3,0.8,1,1.4,1.9,1.4c0.2,0,0.4,0,0.6-0.1l7.2-2.4
	c-0.5-1.2-0.9-2.5-1.2-3.8L1.9,59.5z"/>
<path class="st0" d="M81,38c-0.3-1.3-0.8-2.5-1.2-3.8l-0.2-0.5l7.7-2.5c1.3-0.4,2.7,0.3,3.1,1.6c0.4,1.3-0.3,2.7-1.6,3.2l-7.7,2.5
	L81,38z"/>
<path class="st0" d="M88.7,35.5c1.1-0.3,1.6-1.5,1.3-2.5c-0.3-1.1-1.5-1.6-2.5-1.3l0,0L80.3,34c0.5,1.2,0.9,2.5,1.2,3.8L88.7,35.5z"
	/>
<path class="st0" d="M18.8,86.4c-0.5,0-1-0.2-1.5-0.5c-0.5-0.4-0.9-1-1-1.6c-0.1-0.7,0.1-1.3,0.5-1.9l4.8-6.6l0.4,0.3
	c1,0.8,2.1,1.6,3.2,2.3l0.4,0.3l-4.8,6.6C20.4,86,19.7,86.4,18.8,86.4z"/>
<path class="st0" d="M17.7,85.5c0.3,0.2,0.7,0.4,1.2,0.4c0.6,0,1.2-0.3,1.6-0.8l4.5-6.2c-1.1-0.7-2.2-1.5-3.2-2.3l-4.5,6.2
	C16.6,83.6,16.8,84.9,17.7,85.5z"/>
<path class="st0" d="M68.6,18.8c-1-0.8-2.1-1.6-3.2-2.3L65,16.2l4.8-6.6c0.5-0.6,1.2-1,2-1c0.5,0,1,0.2,1.5,0.5
	c1.1,0.8,1.4,2.4,0.6,3.5L69,19.1L68.6,18.8z"/>
<path class="st0" d="M70.1,9.9l-4.5,6.1c1.1,0.7,2.2,1.5,3.2,2.4l4.5-6.1c0.6-0.9,0.4-2.1-0.4-2.8S70.8,9,70.1,9.9z"/>
</svg>
