<svg id="Layer_1" data-name="Layer 1" xmlns="http://www.w3.org/2000/svg" viewBox="0 0 151.28 151.28"><defs><style>.cls-1{fill:#cb91b6;}</style></defs><title>stat-pay-color</title><path class="cls-1" d="M75.64,0a75.64,75.64,0,1,0,75.64,75.64A75.65,75.65,0,0,0,75.64,0ZM68.8,43.46l.92,1.46C71.49,47.75,80.39,62.18,81.57,68l.25,1.2-1.19-.3a14.43,14.43,0,0,1-3.85-1.76,32.54,32.54,0,0,1-6.65-6.4A35.75,35.75,0,0,1,67.52,57a3.07,3.07,0,0,0-.23-.5c-.75-1.65-1.34-3-2.39-3.36l-.65-.29C50,46.4,45.91,44.49,45,44a4.41,4.41,0,0,0-3.91,0,5.34,5.34,0,0,0-2.84,3.65C37,53.44,40.54,59.86,44.73,63.21c.06,0,6.5,5.21,8.77,8.53.06.07,5.8,7.79,4.61,12.38a3.69,3.69,0,0,1-1.88,2.36l-.39.21-.38-.23a3.55,3.55,0,0,1-1.35-2L54,84.32c-.34-.73-2.18-4.44-4.74-5.59h-.08l-.08-.06A75.27,75.27,0,0,0,38.83,71.9a58.13,58.13,0,0,0-11.76-4.43c-5.89-1.75-11.46-3.4-15.5-7.29L11.36,60,5.8,57.58A72,72,0,0,1,18.37,31.84,103.29,103.29,0,0,0,42.18,25l.2-.09h.21a10.71,10.71,0,0,1,6.47,3.71ZM57.13,30.61l.66-1.36c4,1.07,7.22,2,7.83,2.14a2.84,2.84,0,0,1,1.75,2.19c.12.52.41,1.91.76,3.61l.41,2ZM64.32,57.9c.18.39.32.69.39.8a34.89,34.89,0,0,0,2.88,4.15,40.89,40.89,0,0,0,3,3.31l1.14,1.15-1.61.16a12.53,12.53,0,0,0-9.8,6.78l-.66,1.33L59,74.27a34.42,34.42,0,0,0-2.82-4.45c-2.52-3.67-9.31-9.11-9.39-9.17-3.36-2.69-6.28-8-5.36-12.29A2.15,2.15,0,0,1,42.46,47a1.24,1.24,0,0,1,.53-.12,1.32,1.32,0,0,1,.52.12c.13.07,15,7.06,19.65,9l.17.06c.31.13.62.24.94.34l-.08,1.24Zm1.51,14.64a9.19,9.19,0,0,1,5.49-1.89,9.87,9.87,0,0,1,1.22.08,9.21,9.21,0,0,1-1.18,18.33c-.41,0-.81,0-1.22-.06a9,9,0,0,1-6.06-3.53A9.23,9.23,0,0,1,65.83,72.54Zm9.81,75.24A72.14,72.14,0,0,1,3.5,75.64,73.12,73.12,0,0,1,5,60.82l4.54,1.92.1.09c4.58,4.22,10.64,6,16.54,7.77A55.57,55.57,0,0,1,37.3,74.74a71.44,71.44,0,0,1,10.09,6.69l.23.18.27.09c1,.34,2.47,2.51,3.19,4,1.47,4,4.15,4.3,4.92,4.3a4,4,0,0,0,.49,0l.43-.12a7.77,7.77,0,0,0,3.23-2.49l.61-.84.62.84a12.32,12.32,0,0,0,8.34,4.94,12.78,12.78,0,0,0,1.64.11A12.48,12.48,0,0,0,83.66,81.5,12.66,12.66,0,0,0,82,73.38l-.56-.92,1-.23a3.06,3.06,0,0,0,1-.39c.8-.48,1.69-1.49,1.44-3.59-.67-5.7-8.67-19-12.08-24.52l-.08-.12v-.14c-.3-1.51-1.82-9.13-2.19-10.66a6.09,6.09,0,0,0-3.89-4.54c-.15-.06-1.78-.5-12.37-3.38l-7.37-2a11.87,11.87,0,0,0-4.84-1.33h-.33l-.31.13a101.62,101.62,0,0,1-18.88,6l-.9.19A72.11,72.11,0,0,1,146.09,91.15l-.6.06c-.9.08-2.28.18-3.69.18a20.42,20.42,0,0,1-3.22-.22h-.2a22.28,22.28,0,0,0-9.09-2,16.73,16.73,0,0,0-8.49,2.22l-.22.15s-5.06,3.89-8.5,5.27c-2.45,1-7,2.65-8.8,2.75h-.39c-3,0-12.85.38-15.5,5.19l-.3.55-.6-.18C82.87,104,76.36,102,73.43,101.41c-.45-.17-.9-.3-1.29-.41l-.22-.06a18.43,18.43,0,0,0-5-.78,13.28,13.28,0,0,0-2.74.29c-1.73.37-5.44,2.13-5.22,5a3.68,3.68,0,0,0,1.77,2.75c1.55,1.09,3.21,2,4.88,3l1.23.7a55.81,55.81,0,0,0,7,3.51c1.53.89,9.54,5.39,16.74,6.91.56.23,5.52,2.32,7.7,3.11l.24.08a14.31,14.31,0,0,1,5.18,2.82,10.14,10.14,0,0,0,6.87,2.76,11.31,11.31,0,0,0,7.12-2.76c.76-.64,7.6-6.36,14-9.2.06,0,1.26-.49,2.15-.88A72,72,0,0,1,75.64,147.78ZM136.73,114a39.89,39.89,0,0,0-6.39,2.12c-7.24,3.19-14.69,9.59-14.79,9.67a8.14,8.14,0,0,1-5.08,2,6.79,6.79,0,0,1-4.56-1.86l-.15-.14a17.69,17.69,0,0,0-6.51-3.51c-2.35-.87-7.63-3.09-7.61-3.09l-.39-.13c-7.18-1.42-15.91-6.56-15.94-6.58l-.29-.15A49.32,49.32,0,0,1,68.4,109l-1.26-.71c-1.55-.87-2.93-1.66-4.22-2.53L62,105l1-.63a6.12,6.12,0,0,1,1.86-.84,10.34,10.34,0,0,1,2.08-.21A14.74,14.74,0,0,1,71,104l.23.07a10,10,0,0,1,1.06.34l.42.13c2.54.45,9.9,2.71,13,3.66l.45.14.08.47a7.22,7.22,0,0,0,2.14,4.08c1.65,1.6,4.07,2.4,7.18,2.4a21.44,21.44,0,0,0,2.27-.13q1.5-.24,3-.33c2.45-.15,4.92-.42,7.1-.65l3.18-.34a61.37,61.37,0,0,0,10.67-2,42.42,42.42,0,0,0,6.91-2.64,1.67,1.67,0,0,0,.75-2.19,1.62,1.62,0,0,0-1.47-.93,1.57,1.57,0,0,0-.7.17,38.44,38.44,0,0,1-6.38,2.43,58.61,58.61,0,0,1-10.1,1.91l-2.45.26-.76.08c-2.15.23-4.59.5-6.93.63-1.08.07-2.16.19-3.27.36a15.17,15.17,0,0,1-1.78.1,7.13,7.13,0,0,1-4.9-1.45,3.92,3.92,0,0,1-1.06-1.68l-.08-.23.45-1.45.07-.3c.43-2.86,7.7-4.15,12.72-4.15h.66c2.15-.08,6.67-1.66,9.9-3,3.67-1.48,8.58-5.2,9.22-5.68a13.5,13.5,0,0,1,6.75-1.71,19,19,0,0,1,7.92,1.82l.21.12h.25a22.42,22.42,0,0,0,4.17.33c.85,0,1.67,0,2.39-.07l1-.06A72.09,72.09,0,0,1,136.73,114Z" transform="translate(0 0)"/><path class="cls-1" d="M106.22,73.52l.64.11v2.61a1.63,1.63,0,1,0,3.26,0V73.75l.69-.07a16.45,16.45,0,0,0,3.86-.85A9.93,9.93,0,0,0,120.46,68a6.5,6.5,0,0,0,.17-5.1c-1.59-4.19-5.78-5.59-9.93-6.59l-.58-.14V44.41l.1-.84.84.08h.25c3.46.57,6.73,2.94,7.62,5.57a1.61,1.61,0,0,0,1.54,1.11,1.53,1.53,0,0,0,.52-.08,1.65,1.65,0,0,0,1-2.08c-1.29-3.83-5.48-7-10.2-7.76a5.48,5.48,0,0,0-1-.14l-.68-.08V37.65a1.63,1.63,0,0,0-3.26,0v2.54l-.68.08c-2.58.29-6.12,1.24-8.34,4.09a7.73,7.73,0,0,0,0,9.43c2,2.76,5.23,3.91,8.46,4.76l.57.15V70.27l-.94-.21c-3.79-.86-6.82-3-7.91-5.71a1.61,1.61,0,0,0-1.5-1,1.67,1.67,0,0,0-.62.12,1.62,1.62,0,0,0-.89.89,1.6,1.6,0,0,0,0,1.25C96.64,69.61,100.93,72.65,106.22,73.52Zm4.86-13.76c3.37.92,5.63,2,6.51,4.25a3.23,3.23,0,0,1-.09,2.55,6.75,6.75,0,0,1-3.93,3.18,11.59,11.59,0,0,1-2.59.6l-.86.11,0-11ZM105.89,55c-1.86-.56-4.15-1.42-5.4-3.16a4.47,4.47,0,0,1-.06-5.49A8.48,8.48,0,0,1,106,43.62l.89-.13V55.33Z" transform="translate(0 0)"/></svg>