<svg id="Layer_1" data-name="Layer 1" xmlns="http://www.w3.org/2000/svg" viewBox="0 0 151.28 151.28"><defs><style>.cls-1{fill:#6bc1a3;}</style></defs><title>stat-health-color</title><path class="cls-1" d="M75.64,3.5A72.14,72.14,0,1,1,3.5,75.64h0A72.22,72.22,0,0,1,75.64,3.5m0-3.5a75.64,75.64,0,1,0,75.64,75.64h0A75.66,75.66,0,0,0,75.64,0Z" transform="translate(0)"/><g id="health"><path class="cls-1" d="M109.06,44.53,91.77,28.89a1.67,1.67,0,0,0-1.11-.43H47.56a5.91,5.91,0,0,0-5.89,5.9v86.79a1.65,1.65,0,0,0,1.65,1.67,1.61,1.61,0,0,0,1.07-.38l3.82-3.13,2.25,2.87a1.66,1.66,0,0,0,1.12.63,1.72,1.72,0,0,0,1.23-.37l4.47-3.64,2.28,3.3a1.65,1.65,0,0,0,2.26.45l5.32-3.4,2.47,3a1.66,1.66,0,0,0,2.19.35l5.06-3.26L78.41,122a1.65,1.65,0,0,0,2.26.62,1,1,0,0,0,.24-.16l4-3.29,3.44,3.22a1.66,1.66,0,0,0,2,.21l5.72-3.38,1.8,2.84a1.66,1.66,0,0,0,2.29.52,1.76,1.76,0,0,0,.3-.24l3-3.06,3.34,3.11a1.66,1.66,0,0,0,2.35-.07,1.68,1.68,0,0,0,.45-1.15V45.76A1.65,1.65,0,0,0,109.06,44.53ZM92.32,33.87l11.77,10.65H92.32Zm14,83.47-1.73-1.61a1.67,1.67,0,0,0-2.31,0l-2.7,2.72L98,116.06a1.66,1.66,0,0,0-2.25-.54l-6,3.57-3.59-3.36a1.66,1.66,0,0,0-2.19-.07l-3.62,3-1.45-2.51a1.67,1.67,0,0,0-1.05-.79,1.63,1.63,0,0,0-1.29.22L71.25,119l-2.46-3a1.66,1.66,0,0,0-2.19-.35L61.38,119,59,115.43a1.67,1.67,0,0,0-1.13-.7,1.69,1.69,0,0,0-1.28.36L52,118.8l-2.25-2.88a1.7,1.7,0,0,0-1.13-.63,1.68,1.68,0,0,0-1.24.37l-2.42,2V34.36a2.58,2.58,0,0,1,2.57-2.57H89V46.18a1.66,1.66,0,0,0,1.66,1.66h15.63Z" transform="translate(0)"/><rect class="cls-1" x="54.68" y="66.2" width="41.92" height="3.32"/><rect class="cls-1" x="54.68" y="73.86" width="41.92" height="3.32"/><rect class="cls-1" x="54.68" y="81.52" width="41.92" height="3.32"/><rect class="cls-1" x="86.8" y="89.27" width="9.8" height="3.32"/><path class="cls-1" d="M71.11,62.25h8.16v-7h7V47h-7V40H71.11v7h-7v8.2h7Zm-4.39-9.7V49.7h7V42.65h2.85V49.7h7v2.85h-7v7h-2.8v-7Z" transform="translate(0)"/><path class="cls-1" d="M75.83,97.45c-2-.77-2.66-1.18-2.69-1.93,0-.58.09-1,.32-1.12.82-.58,3.25-.11,4.68.46a1.66,1.66,0,1,0,1.23-3.09A14.57,14.57,0,0,0,76.86,91V89.91a1.67,1.67,0,0,0-3.33,0v1a4.8,4.8,0,0,0-2,.77,4.35,4.35,0,0,0-1.73,4c.11,3.07,2.82,4.13,4.8,4.9,2.65,1,2.83,1.38,2.53,2.53a1.75,1.75,0,0,1-.93,1.33,2.63,2.63,0,0,1-1,.17h-.06a7.8,7.8,0,0,1-2.91-.8,1.69,1.69,0,0,0-1.54,3,11.69,11.69,0,0,0,2.82,1v1.09a1.67,1.67,0,0,0,3.33.26,1.13,1.13,0,0,0,0-.26v-1.11c.24-.07.47-.15.7-.24a5,5,0,0,0,2.8-3.52C81.48,99.65,77.94,98.27,75.83,97.45Z" transform="translate(0)"/><rect class="cls-1" x="54.91" y="89.27" width="4.9" height="3.32"/><rect class="cls-1" x="61.56" y="89.27" width="4.9" height="3.32"/></g></svg>