<svg id="Layer_1" data-name="Layer 1" xmlns="http://www.w3.org/2000/svg" viewBox="0 0 151.28 151.28"><defs><style>.cls-1{fill:#e7bc0e;}</style></defs><title>stat-workers-color</title><path class="cls-1" d="M75.64,3.5A72.14,72.14,0,1,1,3.5,75.64h0A72.22,72.22,0,0,1,75.64,3.5m0-3.5a75.64,75.64,0,1,0,75.64,75.64h0A75.66,75.66,0,0,0,75.64,0Z" transform="translate(0)"/><path class="cls-1" d="M114.44,80a25.13,25.13,0,0,0-2.25-6.29c-1.58-2.75-3.64-4-6.48-4s-4.91,1.29-6.49,4A26,26,0,0,0,97,80l-.3,1.15H94.37L94.06,80a25.13,25.13,0,0,0-2.25-6.29c-1.59-2.79-3.59-4-6.47-4s-4.92,1.29-6.49,4A25.58,25.58,0,0,0,76.58,80l-.3,1.15H74L73.7,80a25.53,25.53,0,0,0-2.25-6.29c-1.58-2.75-3.64-4-6.49-4a7,7,0,0,0-6.49,4A25.36,25.36,0,0,0,56.23,80l-.32,1.21H53.63L53.33,80a25.15,25.15,0,0,0-2.26-6.29c-1.57-2.75-3.63-4-6.48-4s-4.91,1.29-6.48,4A26,26,0,0,0,35.84,80l-.33,1.25-2.45-.65.34-1.29a27.43,27.43,0,0,1,2.49-6.85,10.52,10.52,0,0,1,4.88-4.56,6.59,6.59,0,0,1-2.15-4.8,6.26,6.26,0,0,1,6-6.36h0a5.79,5.79,0,0,1,4.17,1.92,6.43,6.43,0,0,1-.19,9.09l-.16.15a10.5,10.5,0,0,1,4.87,4.56,20.82,20.82,0,0,1,1.5,3.38,20,20,0,0,1,1.49-3.38,10.55,10.55,0,0,1,4.87-4.56A6.56,6.56,0,0,1,59,63.14a6,6,0,1,1,11.91,0,6.54,6.54,0,0,1-2.13,4.8,10.45,10.45,0,0,1,4.87,4.56,20,20,0,0,1,1.49,3.39,20.09,20.09,0,0,1,1.5-3.39,10.55,10.55,0,0,1,4.87-4.56,6.62,6.62,0,0,1-2.14-4.81,6.33,6.33,0,0,1,6-6.35,6.25,6.25,0,0,1,6,6.36,6.61,6.61,0,0,1-2.15,4.8A10.45,10.45,0,0,1,94,72.5a18.18,18.18,0,0,1,1.49,3.38A20.87,20.87,0,0,1,97,72.5a10.52,10.52,0,0,1,4.88-4.56,6.62,6.62,0,0,1-2.14-4.81,6.26,6.26,0,0,1,6-6.35,6.33,6.33,0,0,1,6,6.36,6.61,6.61,0,0,1-2.15,4.8,10.45,10.45,0,0,1,4.87,4.56A27.36,27.36,0,0,1,117,79.36l.34,1.28-2.45.66Zm-8.75-20.7c-1.68,0-3.39,1.91-3.39,3.79s1.71,3.8,3.39,3.8,3.39-1.92,3.39-3.8a3.84,3.84,0,0,0-3.39-3.75Zm-20.36,0c-1.68,0-3.39,1.91-3.39,3.79s1.71,3.8,3.39,3.8,3.38-1.92,3.38-3.8a3.86,3.86,0,0,0-3.38-3.75ZM65,59.34c-1.68,0-3.4,1.92-3.4,3.8s1.72,3.79,3.4,3.79,3.38-1.87,3.38-3.79S66.66,59.34,65,59.34Zm-20.38,0c-1.7,0-3.38,1.89-3.38,3.8s1.68,3.79,3.38,3.79S48,65.06,48,63.14a3.88,3.88,0,0,0-3.42-3.8Z" transform="translate(0)"/><path class="cls-1" d="M35.74,80A26.19,26.19,0,0,1,38,73.7c1.6-2.79,3.69-4.09,6.57-4.09s5,1.3,6.57,4.09A25.68,25.68,0,0,1,53.42,80l.28,1.08h2.13l.3-1.13a25.31,25.31,0,0,1,2.25-6.26C60,70.9,62.07,69.6,65,69.6s5,1.3,6.58,4.09A26.27,26.27,0,0,1,73.8,80l.28,1.08H76.2L76.48,80a26.24,26.24,0,0,1,2.28-6.32c1.6-2.79,3.69-4.09,6.58-4.09s4.94,1.26,6.56,4.09A25.77,25.77,0,0,1,94.16,80l.28,1.08h2.13L96.86,80a25.79,25.79,0,0,1,2.27-6.32c1.6-2.79,3.69-4.09,6.58-4.09s5,1.3,6.57,4.09A25.77,25.77,0,0,1,114.54,80l.3,1.16,2.25-.6-.31-1.19a27.63,27.63,0,0,0-2.47-6.83,10.4,10.4,0,0,0-5-4.58,6.5,6.5,0,0,0,2.23-4.83,6.23,6.23,0,0,0-5.86-6.26,6.14,6.14,0,0,0-5.87,6.25A6.49,6.49,0,0,0,102.06,68a10.4,10.4,0,0,0-5,4.58,20.28,20.28,0,0,0-1.59,3.64,20.2,20.2,0,0,0-1.57-3.64A10.32,10.32,0,0,0,89,68a6.5,6.5,0,0,0,2.23-4.83,6.15,6.15,0,0,0-5.85-6.26,6.23,6.23,0,0,0-5.87,6.25A6.47,6.47,0,0,0,81.7,68a10.4,10.4,0,0,0-5,4.58,19.49,19.49,0,0,0-1.59,3.66,19.45,19.45,0,0,0-1.58-3.66,10.27,10.27,0,0,0-5-4.58,6.46,6.46,0,0,0,2.22-4.83,5.87,5.87,0,1,0-11.71,0A6.48,6.48,0,0,0,61.32,68a10.4,10.4,0,0,0-5,4.58,19.55,19.55,0,0,0-1.58,3.64,20.28,20.28,0,0,0-1.59-3.64,10.27,10.27,0,0,0-5-4.58,6.44,6.44,0,0,0,2.23-4.83,6.23,6.23,0,0,0-5.86-6.26h0a6.16,6.16,0,0,0-5.86,6.26A6.48,6.48,0,0,0,41,68a10.31,10.31,0,0,0-5,4.58,27.12,27.12,0,0,0-2.48,6.83l-.3,1.19,2.25.6Zm8.84-20.78c1.76,0,3.48,1.94,3.48,3.9S46.34,67,44.58,67s-3.48-1.92-3.48-3.89a3.93,3.93,0,0,1,3.48-3.87Zm20.38,0c1.75,0,3.48,1.94,3.48,3.9S66.71,67,65,67s-3.5-2-3.5-3.89,1.73-3.87,3.5-3.87Zm20.37,0c1.76,0,3.48,1.93,3.48,3.89S87.06,67,85.33,67s-3.49-2-3.49-3.9,1.76-3.86,3.49-3.86Zm20.36,0c1.76,0,3.49,1.93,3.49,3.89s-1.76,3.9-3.49,3.9-3.49-2-3.49-3.9,1.8-3.87,3.49-3.87Z" transform="translate(0)"/><path class="cls-1" d="M94,55.8a25.53,25.53,0,0,0-2.25-6.29c-1.58-2.76-3.64-4-6.49-4s-4.9,1.28-6.48,4a25.58,25.58,0,0,0-2.27,6.29L76.16,57H73.87l-.3-1.15a25.53,25.53,0,0,0-2.25-6.29c-1.6-2.79-3.59-4-6.47-4s-4.92,1.28-6.5,4a26,26,0,0,0-2.26,6.29l-.33,1.25-2.44-.65.32-1.24a27.44,27.44,0,0,1,2.51-6.9A10.56,10.56,0,0,1,61,43.7a6.63,6.63,0,0,1-2.15-4.81,6.33,6.33,0,0,1,6-6.35h1.47l-.24.16a6.37,6.37,0,0,1,4.69,6.21,6.57,6.57,0,0,1-2.13,4.79,10.57,10.57,0,0,1,4.87,4.57A19.51,19.51,0,0,1,75,51.64a19.51,19.51,0,0,1,1.49-3.37,10.54,10.54,0,0,1,4.88-4.57,6.57,6.57,0,0,1-2.13-4.81,6,6,0,0,1,11.92-1.38,6.37,6.37,0,0,1,0,1.38A6.59,6.59,0,0,1,89,43.7a10.5,10.5,0,0,1,4.87,4.56,27.43,27.43,0,0,1,2.49,6.85l.33,1.29-2.44.65ZM85.22,35.1c-1.68,0-3.39,1.91-3.39,3.79s1.71,3.8,3.39,3.8,3.38-1.92,3.38-3.8S86.93,35.1,85.22,35.1Zm-20.36,0c-1.69,0-3.4,1.91-3.4,3.79s1.71,3.8,3.4,3.8,3.38-1.92,3.38-3.8S66.56,35.1,64.86,35.1Z" transform="translate(0)"/><path class="cls-1" d="M56,55.78a25.82,25.82,0,0,1,2.28-6.32c1.59-2.79,3.69-4.09,6.58-4.09s4.94,1.26,6.56,4.09a25.44,25.44,0,0,1,2.26,6.31L74,56.85h2.13l.28-1.07a26.24,26.24,0,0,1,2.28-6.32c1.6-2.79,3.69-4.09,6.57-4.09s5,1.3,6.58,4.09a25.44,25.44,0,0,1,2.26,6.31l.3,1.16,2.25-.6-.31-1.19a27.26,27.26,0,0,0-2.48-6.83,10.27,10.27,0,0,0-5-4.58,6.49,6.49,0,0,0,2.22-4.83,5.87,5.87,0,1,0-11.72-.68c0,.22,0,.45,0,.68a6.49,6.49,0,0,0,2.21,4.85,10.27,10.27,0,0,0-5,4.58A19.78,19.78,0,0,0,75,52a21,21,0,0,0-1.58-3.64,10.22,10.22,0,0,0-5-4.58A6.46,6.46,0,0,0,70.64,39a6.23,6.23,0,0,0-4.85-6.16l.16-.11H64.86A6.23,6.23,0,0,0,59,38.89a6.51,6.51,0,0,0,2.23,4.84,10.4,10.4,0,0,0-5,4.58,27.16,27.16,0,0,0-2.51,6.88l-.29,1.14,2.24.6ZM64.86,35c1.75,0,3.48,1.93,3.48,3.89s-1.76,3.9-3.48,3.9-3.5-2-3.5-3.9S63.13,35,64.86,35ZM88.7,38.89c0,1.93-1.76,3.9-3.48,3.9s-3.49-2-3.49-3.9S83.49,35,85.22,35,88.7,36.93,88.7,38.89Z" transform="translate(0)"/><path class="cls-1" d="M134.92,104.28A25.46,25.46,0,0,0,132.67,98c-1.58-2.75-3.64-4-6.48-4s-4.91,1.29-6.49,4a26,26,0,0,0-2.27,6.29l-.3,1.16h-2.28l-.31-1.16A25.13,25.13,0,0,0,112.29,98c-1.59-2.79-3.59-4-6.47-4s-4.92,1.29-6.49,4a25.58,25.58,0,0,0-2.27,6.29l-.3,1.16H94.48l-.3-1.17A26,26,0,0,0,91.93,98c-1.58-2.75-3.64-4-6.48-4A6.89,6.89,0,0,0,79,98a26,26,0,0,0-2.27,6.29l-.3,1.16H74.1l-.3-1.16A25.53,25.53,0,0,0,71.55,98C70,95.2,68,94,65.08,94s-4.92,1.29-6.5,4a26,26,0,0,0-2.26,6.29L56,105.44H53.74l-.3-1.16A26,26,0,0,0,51.19,98c-1.59-2.75-3.65-4-6.49-4s-4.92,1.29-6.5,4a25.45,25.45,0,0,0-2.2,6.22l-.32,1.22H33.36l-.3-1.16A25.06,25.06,0,0,0,30.81,98c-1.57-2.75-3.63-4-6.48-4s-4.91,1.29-6.49,4a26,26,0,0,0-2.26,6.29l-.33,1.26-2.45-.66.34-1.29a27.36,27.36,0,0,1,2.49-6.84,10.52,10.52,0,0,1,4.88-4.56,6.59,6.59,0,0,1-2.15-4.8A6.28,6.28,0,0,1,24.21,81h.08a6.33,6.33,0,0,1,6,6.36,6.58,6.58,0,0,1-2.14,4.79A10.47,10.47,0,0,1,33,96.74a20.82,20.82,0,0,1,1.5,3.38A19.23,19.23,0,0,1,36,96.74a10.5,10.5,0,0,1,4.87-4.56,6.57,6.57,0,0,1-2.13-4.79,6.25,6.25,0,0,1,6-6.36,6.25,6.25,0,0,1,6,6.36,6.61,6.61,0,0,1-2.13,4.79,10.5,10.5,0,0,1,4.87,4.56A20,20,0,0,1,55,100.13a19,19,0,0,1,1.5-3.39,10.45,10.45,0,0,1,4.87-4.56,6.57,6.57,0,0,1-2.14-4.81,6.32,6.32,0,0,1,6-6.34A6.24,6.24,0,0,1,71,87.39a6.58,6.58,0,0,1-2.14,4.79,10.57,10.57,0,0,1,4.87,4.57,18.77,18.77,0,0,1,1.49,3.37,20.72,20.72,0,0,1,1.5-3.37,10.48,10.48,0,0,1,4.87-4.57,6.57,6.57,0,0,1-2.13-4.81,6.24,6.24,0,0,1,6-6.34,6.33,6.33,0,0,1,6,6.36,6.58,6.58,0,0,1-2.14,4.79,10.57,10.57,0,0,1,4.87,4.57,20,20,0,0,1,1.49,3.38,19,19,0,0,1,1.5-3.39A10.59,10.59,0,0,1,102,92.18a6.62,6.62,0,0,1-2.14-4.81,6.32,6.32,0,0,1,6-6.34,6.24,6.24,0,0,1,6,6.36,6.63,6.63,0,0,1-2.15,4.79,10.48,10.48,0,0,1,4.87,4.57,19.55,19.55,0,0,1,1.5,3.37,19.51,19.51,0,0,1,1.49-3.37,10.62,10.62,0,0,1,4.87-4.57,6.65,6.65,0,0,1-2.13-4.81,6.24,6.24,0,0,1,6-6.34,6.33,6.33,0,0,1,6,6.36A6.57,6.57,0,0,1,130,92.18a10.57,10.57,0,0,1,4.87,4.57,27.4,27.4,0,0,1,2.48,6.85l.34,1.28-2.43.66Zm-8.74-20.69c-1.68,0-3.4,1.91-3.4,3.79s1.72,3.8,3.4,3.8,3.38-1.92,3.38-3.8S127.88,83.59,126.18,83.59Zm-20.37,0c-1.68,0-3.39,1.91-3.39,3.79s1.71,3.8,3.39,3.8,3.38-1.92,3.38-3.8S107.52,83.59,105.81,83.59Zm-20.37,0c-1.68,0-3.4,1.91-3.4,3.79s1.72,3.8,3.4,3.8,3.38-1.92,3.38-3.8S87.14,83.59,85.44,83.59Zm-20.37,0c-1.68,0-3.39,1.91-3.39,3.79s1.71,3.8,3.39,3.8,3.39-1.92,3.39-3.8S66.78,83.59,65.07,83.59Zm-20.37,0c-1.68,0-3.39,1.92-3.39,3.8S43,91.18,44.7,91.18s3.38-1.88,3.38-3.79-1.67-3.8-3.38-3.8Zm-20.37,0c-1.71,0-3.39,1.88-3.39,3.8a3.85,3.85,0,0,0,3.39,3.79c1.71,0,3.38-1.88,3.38-3.79s-1.71-3.8-3.38-3.8Z" transform="translate(0)"/><path class="cls-1" d="M137.25,103.63a27.12,27.12,0,0,0-2.48-6.83,10.29,10.29,0,0,0-5-4.59A6.43,6.43,0,0,0,132,87.39a6.23,6.23,0,0,0-5.86-6.26,6.16,6.16,0,0,0-5.87,6.24,6.46,6.46,0,0,0,2.22,4.84,10.29,10.29,0,0,0-5,4.59,19.88,19.88,0,0,0-1.59,3.63,19.8,19.8,0,0,0-1.57-3.63,10.29,10.29,0,0,0-5-4.59,6.48,6.48,0,0,0,2.23-4.82,6.14,6.14,0,0,0-5.85-6.26,6.22,6.22,0,0,0-5.87,6.24,6.47,6.47,0,0,0,2.23,4.84,10.4,10.4,0,0,0-5,4.58,19.49,19.49,0,0,0-1.59,3.66A19.26,19.26,0,0,0,94,96.8a10.29,10.29,0,0,0-5-4.59,6.48,6.48,0,0,0,2.23-4.82,6.23,6.23,0,0,0-5.87-6.26,6.15,6.15,0,0,0-5.86,6.24,6.46,6.46,0,0,0,2.22,4.84,10.29,10.29,0,0,0-5,4.59,19.88,19.88,0,0,0-1.59,3.63,19.18,19.18,0,0,0-1.58-3.63,10.29,10.29,0,0,0-5-4.59,6.43,6.43,0,0,0,2.23-4.82,6.13,6.13,0,0,0-5.84-6.26,6.22,6.22,0,0,0-5.87,6.24,6.46,6.46,0,0,0,2.22,4.84,10.4,10.4,0,0,0-5,4.58,19.45,19.45,0,0,0-1.58,3.66,19.45,19.45,0,0,0-1.58-3.66,10.27,10.27,0,0,0-5-4.58,6.46,6.46,0,0,0,2.22-4.82,6.14,6.14,0,0,0-5.85-6.26,6.14,6.14,0,0,0-5.86,6.26A6.46,6.46,0,0,0,41,92.21a10.4,10.4,0,0,0-5,4.58,20.2,20.2,0,0,0-1.57,3.64,20.28,20.28,0,0,0-1.59-3.64,10.27,10.27,0,0,0-5-4.58,6.43,6.43,0,0,0,2.23-4.82,6.23,6.23,0,0,0-5.87-6.26h0a6.16,6.16,0,0,0-5.83,6.26,6.5,6.5,0,0,0,2.23,4.83,10.4,10.4,0,0,0-5,4.58,27.19,27.19,0,0,0-2.48,6.82l-.31,1.19,2.26.6.3-1.15a25.82,25.82,0,0,1,2.28-6.32c1.6-2.79,3.68-4.09,6.57-4.09s5,1.3,6.57,4.09a25.36,25.36,0,0,1,2.26,6.32l.28,1.08h2.13l.3-1.14A25.31,25.31,0,0,1,38,97.94c1.59-2.79,3.69-4.09,6.58-4.09s5,1.3,6.57,4.09a25.36,25.36,0,0,1,2.26,6.32l.29,1.08h2.12l.28-1.08a25.82,25.82,0,0,1,2.28-6.32C60,95.15,62.08,93.85,65,93.85s4.94,1.27,6.56,4.09a25.36,25.36,0,0,1,2.26,6.32l.28,1.08H76.2l.29-1.08a25.79,25.79,0,0,1,2.27-6.32c1.6-2.79,3.69-4.09,6.57-4.09s5,1.3,6.58,4.09a26,26,0,0,1,2.26,6.3l.28,1.1h2.12l.28-1.08a26.24,26.24,0,0,1,2.28-6.32c1.6-2.79,3.69-4.09,6.58-4.09s4.94,1.27,6.56,4.09a25.36,25.36,0,0,1,2.26,6.32l.28,1.08h2.13l.29-1.08a25.79,25.79,0,0,1,2.27-6.32c1.6-2.79,3.69-4.09,6.58-4.09s5,1.3,6.57,4.09a25.36,25.36,0,0,1,2.26,6.32l.3,1.15,2.24-.6ZM122.68,87.38c0-1.93,1.77-3.89,3.5-3.89s3.48,1.92,3.48,3.89-1.76,3.9-3.48,3.9S122.68,89.31,122.68,87.38Zm-20.36,0c0-1.93,1.76-3.89,3.49-3.89s3.48,1.92,3.48,3.89-1.75,3.9-3.48,3.9S102.32,89.31,102.32,87.38ZM82,87.38c0-1.93,1.76-3.89,3.49-3.89S89,85.41,89,87.38s-1.76,3.9-3.48,3.9S82,89.31,82,87.38Zm-20.37,0c0-1.93,1.76-3.89,3.49-3.89s3.49,1.92,3.49,3.89-1.76,3.9-3.49,3.9-3.54-2-3.54-3.9Zm-20.37,0c0-1.93,1.76-3.9,3.49-3.9s3.48,1.93,3.48,3.9-1.72,3.89-3.48,3.89a4,4,0,0,1-3.54-3.88Zm-20.37,0a3.94,3.94,0,0,1,3.49-3.9c1.76,0,3.48,1.93,3.48,3.9s-1.73,3.89-3.48,3.89a4,4,0,0,1-3.54-3.88Z" transform="translate(0)"/></svg>